<?xml version="1.0" encoding="utf-8"?>
<svg height="512" viewBox="0 0 64 64" width="512" xmlns="http://www.w3.org/2000/svg">
  <path d="M 16.208 11.355 C 27.557 11.355 35.354 6.009 40.823 6.009 C 46.293 6.009 57.78 8.868 57.78 31.751 C 57.78 54.633 42.326 57.99 36.311 57.99 C 8.138 57.991 -3.894 11.355 16.208 11.355 Z" style="fill: rgb(214, 214, 214);"/>
  <path d="M 51.443 25 L 51.443 50.665 C 51.443 51.525 50.747 52.222 49.888 52.222 L 14.111 52.222 C 13.253 52.219 12.558 51.524 12.556 50.665 L 12.556 25 Z" style="fill: rgb(83, 180, 41);"/>
  <path d="M 35.889 18.778 L 51.443 18.778 L 51.443 25 L 35.889 25 Z" style="fill: #003C0C;"/>
  <path d="M 47.237 12.471 L 51.443 18.778 L 12.556 18.778 L 16.764 12.471 C 17.05 12.037 17.535 11.776 18.055 11.778 L 45.945 11.778 C 46.465 11.776 46.95 12.037 47.237 12.471 Z" style="fill: rgb(83, 180, 41);"/>
  <path d="M 12.556 18.778 L 28.111 18.778 L 28.111 25 L 12.556 25 Z" style="fill: #003C0C;"/>
  <path d="M 35.889 25 L 35.889 31.222 L 32 28.111 L 28.111 31.222 L 28.111 25 L 28.111 18.778 L 35.889 18.778 Z" style="fill: rgb(255, 255, 255);"/>
  <circle style="fill: rgb(226, 27, 27);" cx="48.033" cy="47.37" r="7.637"/>
  <path style="fill: rgb(196, 6, 6);" d="M 55.619 48.245 L 51.371 43.997 L 44.878 50.73 L 49.082 54.935 C 52.518 54.461 55.224 51.705 55.619 48.245 Z"/>
  <g transform="matrix(0.029834, 0, 0, 0.029834, 40.396286, 39.733509)" style="">
    <path style="fill:#FFFFFF;" d="M354.376,371.536c-5.12,0-10.232-1.952-14.144-5.856L146.408,171.848 c-7.816-7.816-7.816-20.472,0-28.28s20.472-7.816,28.28,0L368.52,337.4c7.816,7.816,7.816,20.472,0,28.28 C364.608,369.584,359.496,371.536,354.376,371.536z"/>
    <path style="fill:#FFFFFF;" d="M160.544,371.536c-5.12,0-10.232-1.952-14.144-5.856c-7.816-7.816-7.816-20.472,0-28.28 l193.832-193.832c7.816-7.816,20.472-7.816,28.28,0s7.816,20.472,0,28.28L174.688,365.68 C170.784,369.584,165.664,371.536,160.544,371.536z"/>
  </g>
  <g transform="matrix(0.036242, 0, 0, 0.036242, 38.779259, 38.605736)" style=""/>
  <g transform="matrix(0.036242, 0, 0, 0.036242, 38.779259, 38.605736)" style=""/>
  <g transform="matrix(0.036242, 0, 0, 0.036242, 38.779259, 38.605736)" style=""/>
  <g transform="matrix(0.036242, 0, 0, 0.036242, 38.779259, 38.605736)" style=""/>
  <g transform="matrix(0.036242, 0, 0, 0.036242, 38.779259, 38.605736)" style=""/>
  <g transform="matrix(0.036242, 0, 0, 0.036242, 38.779259, 38.605736)" style=""/>
  <g transform="matrix(0.036242, 0, 0, 0.036242, 38.779259, 38.605736)" style=""/>
  <g transform="matrix(0.036242, 0, 0, 0.036242, 38.779259, 38.605736)" style=""/>
  <g transform="matrix(0.036242, 0, 0, 0.036242, 38.779259, 38.605736)" style=""/>
  <g transform="matrix(0.036242, 0, 0, 0.036242, 38.779259, 38.605736)" style=""/>
  <g transform="matrix(0.036242, 0, 0, 0.036242, 38.779259, 38.605736)" style=""/>
  <g transform="matrix(0.036242, 0, 0, 0.036242, 38.779259, 38.605736)" style=""/>
  <g transform="matrix(0.036242, 0, 0, 0.036242, 38.779259, 38.605736)" style=""/>
  <g transform="matrix(0.036242, 0, 0, 0.036242, 38.779259, 38.605736)" style=""/>
  <g transform="matrix(0.036242, 0, 0, 0.036242, 38.779259, 38.605736)" style=""/>
</svg>